<svg id="Layer_1" data-name="Layer 1" xmlns="http://www.w3.org/2000/svg" viewBox="0 0 35 35"><defs><style>.cls-1{fill:#383d84;}.cls-2{fill:#fff;}</style></defs><title>facebook-icon</title><g id="Page-1"><g id="Sign-in"><g id="Group-9"><circle id="Oval" class="cls-1" cx="17.5" cy="17.5" r="17.5"/><path id="facebook-logo" class="cls-2" d="M21.66,9H19.5a3.79,3.79,0,0,0-4,4.1V15H13.34a.34.34,0,0,0-.34.34v2.73a.34.34,0,0,0,.34.34h2.17v6.91a.34.34,0,0,0,.34.34h2.83a.34.34,0,0,0,.34-.34V18.4h2.54a.34.34,0,0,0,.34-.34V15.33a.35.35,0,0,0-.1-.24.31.31,0,0,0-.24-.1H19V13.38c0-.76.18-1.16,1.19-1.16h1.45a.34.34,0,0,0,.34-.34V9.34A.34.34,0,0,0,21.66,9Z"/></g></g></g></svg>