<?xml version="1.0" encoding="UTF-8"?>
<svg width="35px" height="35px" viewBox="0 0 35 35" version="1.1" xmlns="http://www.w3.org/2000/svg" xmlns:xlink="http://www.w3.org/1999/xlink">
    <!-- Generator: Sketch 51.2 (57519) - http://www.bohemiancoding.com/sketch -->
    <title>Group 8</title>
    <desc>Created with Sketch.</desc>
    <defs></defs>
    <g id="Page-1" stroke="none" stroke-width="1" fill="none" fill-rule="evenodd">
        <g id="Sign-in" transform="translate(-182.000000, -335.000000)">
            <g id="Group-4" transform="translate(63.000000, 335.000000)">
                <g id="Group-8" transform="translate(119.000000, 0.000000)">
                    <circle id="Oval" fill="#383D84" cx="17.5" cy="17.5" r="17.5"></circle>
                    <path d="M21.661856,9.00324722 L19.5028864,9 C17.0776447,9 15.509886,10.6082407 15.509886,13.0969115 L15.509886,14.9861452 L13.33901,14.9861452 C13.1521865,14.9861452 13,15.1374657 13,15.3251551 L13,18.0625631 C13,18.2493866 13.1521865,18.4015731 13.33901,18.4015731 L15.509886,18.4015731 L15.509886,25.3079809 C15.509886,25.4948044 15.6620724,25.6469909 15.8497619,25.6469909 L18.6809063,25.6469909 C18.8685958,25.6469909 19.0207822,25.4948044 19.0207822,25.3079809 L19.0207822,18.4015731 L21.5585943,18.4015731 C21.7462837,18.4015731 21.8978208,18.2493866 21.8978208,18.0625631 L21.8993361,15.3251551 C21.8993361,15.2355318 21.8629672,15.1493722 21.7995382,15.0850772 C21.7361091,15.0216481 21.6499495,14.9861452 21.5594602,14.9861452 L19.0207822,14.9861452 L19.0207822,13.3846154 C19.0207822,12.6150238 19.2043585,12.2242748 20.2064511,12.2242748 L21.66099,12.2234089 C21.8486795,12.2234089 22,12.0712224 22,11.8843989 L22,9.34333959 C22,9.15543368 21.8486795,9.00411315 21.661856,9.00324722 Z" id="facebook-logo" fill="#FFFFFF"></path>
                </g>
            </g>
        </g>
    </g>
</svg>