<?xml version="1.0" encoding="UTF-8"?>
<svg width="84px" height="109px" viewBox="0 0 84 109" version="1.1" xmlns="http://www.w3.org/2000/svg" xmlns:xlink="http://www.w3.org/1999/xlink">
    <!-- Generator: Sketch 51.2 (57519) - http://www.bohemiancoding.com/sketch -->
    <defs>
        <polygon id="path-1" points="0.0126395939 0 82.9009898 0 82.9009898 107.857868 0.0126395939 107.857868"></polygon>
    </defs>
    <g id="Page-1" stroke="none" stroke-width="1" fill="none" fill-rule="evenodd">
        <g id="policy">
            <g id="Group-2">
                <g id="Group" transform="translate(0.500000, 0.543147)">
                    <g id="Group-5">
                        <mask id="mask-2" fill="white">
                            <use xlink:href="#path-1"></use>
                        </mask>
                        <g id="Clip-2"></g>
                        <polyline id="Fill-1" fill="#D1C9C7" mask="url(#mask-2)" points="73.3136472 0 63.7263046 53.928934 73.3136472 107.857868 82.9009898 107.857868 82.9009898 0 73.3136472 0"></polyline>
                        <polyline id="Fill-3" fill="#ECE6E5" mask="url(#mask-2)" points="73.3144898 0 73.3144898 107.857868 0 107.857868 0 16.777797 11.984231 11.984231 16.777797 0 73.3144898 0"></polyline>
                        <polyline id="Fill-4" fill="#D1C9C7" mask="url(#mask-2)" points="16.777797 0 16.777797 16.777797 0 16.777797 16.777797 0"></polyline>
                    </g>
                    <path d="M61.3294162,35.3533655 L11.9848629,35.3533655 C10.9918122,35.3533655 10.187302,34.5486447 10.187302,33.5558046 C10.187302,32.5629645 10.9918122,31.7582437 11.9848629,31.7582437 L61.3294162,31.7582437 C62.322467,31.7582437 63.1269772,32.5629645 63.1269772,33.5558046 C63.1269772,34.5486447 62.322467,35.3533655 61.3294162,35.3533655" id="Fill-6" fill="#837775"></path>
                    <path d="M61.3294162,64.1156041 L11.9848629,64.1156041 C10.9918122,64.1156041 10.187302,63.3106726 10.187302,62.3178325 C10.187302,61.325203 10.9918122,60.5202716 11.9848629,60.5202716 L61.3294162,60.5202716 C62.322467,60.5202716 63.1269772,61.325203 63.1269772,62.3178325 C63.1269772,63.3106726 62.322467,64.1156041 61.3294162,64.1156041" id="Fill-7" fill="#837775"></path>
                    <path d="M61.3294162,73.7029467 L41.4507056,73.7029467 C40.4576548,73.7029467 39.6531447,72.8980152 39.6531447,71.9051751 C39.6531447,70.9125457 40.4576548,70.1076142 41.4507056,70.1076142 L61.3294162,70.1076142 C62.322467,70.1076142 63.1269772,70.9125457 63.1269772,71.9051751 C63.1269772,72.8980152 62.322467,73.7029467 61.3294162,73.7029467" id="Fill-8" fill="#837775"></path>
                    <path d="M61.3294162,18.5755685 L23.9690939,18.5755685 C22.9760431,18.5755685 22.171533,17.7706371 22.171533,16.777797 C22.171533,15.7851675 22.9760431,14.980236 23.9690939,14.980236 L61.3294162,14.980236 C62.322467,14.980236 63.1269772,15.7851675 63.1269772,16.777797 C63.1269772,17.7706371 62.322467,18.5755685 61.3294162,18.5755685" id="Fill-9" fill="#837775"></path>
                    <path d="M61.3294162,44.9407081 L41.4507056,44.9407081 C40.4576548,44.9407081 39.6531447,44.1359873 39.6531447,43.1431472 C39.6531447,42.1503071 40.4576548,41.3455863 41.4507056,41.3455863 L61.3294162,41.3455863 C62.322467,41.3455863 63.1269772,42.1503071 63.1269772,43.1431472 C63.1269772,44.1359873 62.322467,44.9407081 61.3294162,44.9407081" id="Fill-10" fill="#837775"></path>
                    <path d="M61.3294162,54.5280508 L41.4507056,54.5280508 C40.4576548,54.5280508 39.6531447,53.7233299 39.6531447,52.7304898 C39.6531447,51.7376497 40.4576548,50.9329289 41.4507056,50.9329289 L61.3294162,50.9329289 C62.322467,50.9329289 63.1269772,51.7376497 63.1269772,52.7304898 C63.1269772,53.7233299 62.322467,54.5280508 61.3294162,54.5280508" id="Fill-11" fill="#837775"></path>
                    <polygon id="Fill-12" fill="#DE4441" points="11.9838096 91.0800711 31.8623096 91.0800711 31.8623096 71.9051751 11.9838096 71.9051751"></polygon>
                    <path d="M31.8635736,54.5280508 L11.9848629,54.5280508 C10.9918122,54.5280508 10.187302,53.7233299 10.187302,52.7304898 C10.187302,51.7376497 10.9918122,50.9329289 11.9848629,50.9329289 L31.8635736,50.9329289 C32.8566244,50.9329289 33.6613452,51.7376497 33.6613452,52.7304898 C33.6613452,53.7233299 32.8564137,54.5280508 31.8635736,54.5280508" id="Fill-13" fill="#837775"></path>
                    <path d="M49.3451853,92.877632 L41.4507056,92.877632 C40.4576548,92.877632 39.6531447,92.0727005 39.6531447,91.0800711 C39.6531447,90.087231 40.4576548,89.2822995 41.4507056,89.2822995 L49.3451853,89.2822995 C50.338236,89.2822995 51.1427462,90.087231 51.1427462,91.0800711 C51.1427462,92.0727005 50.338236,92.877632 49.3451853,92.877632" id="Fill-14" fill="#837775"></path>
                    <path d="M61.3294162,83.2902893 L41.4507056,83.2902893 C40.4576548,83.2902893 39.6531447,82.4853579 39.6531447,81.4925178 C39.6531447,80.4998883 40.4576548,79.6949569 41.4507056,79.6949569 L61.3294162,79.6949569 C62.322467,79.6949569 63.1269772,80.4998883 63.1269772,81.4925178 C63.1269772,82.4853579 62.322467,83.2902893 61.3294162,83.2902893" id="Fill-15" fill="#837775"></path>
                    <path d="M31.8635736,44.9407081 L11.9848629,44.9407081 C10.9918122,44.9407081 10.187302,44.1359873 10.187302,43.1431472 C10.187302,42.1503071 10.9918122,41.3455863 11.9848629,41.3455863 L31.8635736,41.3455863 C32.8566244,41.3455863 33.6613452,42.1503071 33.6613452,43.1431472 C33.6613452,44.1359873 32.8564137,44.9407081 31.8635736,44.9407081" id="Fill-16" fill="#837775"></path>
                </g>
            </g>
        </g>
    </g>
</svg>
