<?xml version="1.0" encoding="UTF-8"?>
<svg width="18px" height="18px" viewBox="0 0 18 18" version="1.1" xmlns="http://www.w3.org/2000/svg" xmlns:xlink="http://www.w3.org/1999/xlink">
    <!-- Generator: Sketch 51.2 (57519) - http://www.bohemiancoding.com/sketch -->
    <g id="Page-1" stroke="none" stroke-width="1" fill="none" fill-rule="evenodd" opacity="0.25568704">
        <g id="Home" transform="translate(-270.000000, -209.000000)" fill="#000000">
            <g id="Group" transform="translate(31.000000, 209.000000)">
                <path d="M245.801,0.504 C242.043,0.504 239,3.547 239,7.305 C239,11.059 242.043,14.106 245.801,14.106 C247.242,14.106 248.582,13.653 249.684,12.887 L254.727,17.93 C254.82,18.024 254.969,18.024 255.066,17.93 L256.426,16.571 C256.52,16.477 256.516,16.321 256.426,16.231 L251.383,11.188 C252.148,10.086 252.602,8.746 252.602,7.305 C252.602,3.547 249.555,0.504 245.801,0.504 Z M245.801,12.504 C242.93,12.504 240.602,10.176 240.602,7.305 C240.602,4.434 242.93,2.106 245.801,2.106 C248.672,2.106 251,4.434 251,7.305 C251,10.176 248.672,12.504 245.801,12.504 Z" id="Fill-1"></path>
            </g>
        </g>
    </g>
</svg>
